<svg xmlns="http://www.w3.org/2000/svg" xmlns:xlink="http://www.w3.org/1999/xlink" width="229.124" height="381.434" viewBox="0 0 229.124 381.434"><defs><style>.a{fill:#f09b9b;}.b{fill:#e06e7e;}.c{fill:#386596;}.d{fill:#718ca9;}.e{fill:#416a96;}.f{fill:#58799c;}.g{fill:url(#a);}.h{fill:url(#b);}.i{fill:none;stroke:#e06e7e;stroke-linecap:round;stroke-width:3px;}.j{fill:#8a4e53;}.k{fill:#194e2f;}.l{fill:#3c3c3c;}.m{fill:#313030;}.n{fill:url(#c);}.o{fill:#315e90;}.p{fill:#fff;font-size:52px;font-family:GothamPro-Black, Gotham Pro;font-weight:800;}</style><linearGradient id="a" x1="0.865" y1="-0.184" x2="0.766" y2="1.164" gradientUnits="objectBoundingBox"><stop offset="0" stop-color="#767676"/><stop offset="1"/></linearGradient><linearGradient id="b" x1="0.709" y1="0.439" x2="1.081" y2="1.087" gradientUnits="objectBoundingBox"><stop offset="0" stop-color="#474747"/><stop offset="1"/></linearGradient><linearGradient id="c" x1="0.256" y1="1" x2="1.478" y2="-1.89" gradientUnits="objectBoundingBox"><stop offset="0" stop-color="#302f2f"/><stop offset="1" stop-color="#747474"/></linearGradient></defs><g transform="translate(-112.45 105.253)"><g transform="translate(112.45 2.565)"><path class="a" d="M184.088,135.3c-.591,6.168-.213,17.733,7.258,17.2,0,0,10.751,31.267,31.445,34.807,17.846-3.272,28.758-31.589,29.564-34.271,2.473.858,9.024-9.459,3.756-18.791-1.505-2.682-5.476-1.7-5.476-1.7V127.01c-28.22,2.735-46.561-19.269-46.561-19.269-10.474,10.439-12.944,10.807-14.126,25.342,0,0-.59-.547-2.794-.6a4.045,4.045,0,0,0-2.344,1.167A2.282,2.282,0,0,0,184.088,135.3Z" transform="translate(-141.931 -104.543)"/><path class="b" d="M-6576.841,9224.177a51.634,51.634,0,0,1,4.643-12.021c3.275-5.948,8.456-6.384,8.456-6.384a166.619,166.619,0,0,0,17.576,9.2c9.779,4.551,27.1,7.064,27.1,7.064l2,7.116s.9-2.746,2.632-2.9,4.284,2.279,4.284,2.279l-6.916-15.464-46.675-17.908-16.83,17.908-1.028,10.327a3.271,3.271,0,0,0-1.451.944,3.607,3.607,0,0,0-.673,2.047,3.08,3.08,0,0,1,2.344-1.5,14.508,14.508,0,0,1,4.539.829Z" transform="translate(6625.837 -9195.16)"/><path class="a" d="M214.45,237.9,210.7,256.676l-12.5,4.291,7.4,116.7,45.834-15.7,3.936-103.2-7.991-2.521L243.3,237.1l-28.854.8Z" transform="translate(-148.534 -164.26)"/><path class="c" d="M277.329,275.5,315.5,286.1c9.386,2.9,17.5,9.645,17.773,19.621l2.927,96.62-28-3.157-2.372-56.224L303.8,402.339H253.99v-90.35l5.182-11.953,12.747-10.328Z" transform="translate(-174.407 -182.066)"/><path class="b" d="M-6483.236,9374.125a61.721,61.721,0,0,1-5.226,10.351,111.3,111.3,0,0,1-9.949,12.851l9.949-7.254,6.389-15.632Z" transform="translate(6584.73 -9281.393)"/><g transform="translate(0 92.8)"><path class="d" d="M281.051,274.659s.874-1.251,2.114.869c.666,1.135,1.078,1.575,2.659,8.426,2.4,10.891-8.618,24.068-8.618,24.068l-6.736-11.814-8.083,5.7.57-2.617s2.114-1.734,4.8-4.284a53.319,53.319,0,0,0,7.224-8.152,61.9,61.9,0,0,0,6.073-12.2Z" transform="translate(-178.451 -274.293)"/><path class="e" d="M165.87,274.8l-39.9,10.973c-9.439,2.735-13.389,9.922-13.818,19.9,0,0-6.183,68.673-6.6,79.036s0,70.651,0,70.651L129.3,439.5l3.334-52.169,4.593-42.475v89.411l47.678-32.2V310.213L183.5,299.435l-9.43-9.845-8.2-14.79Z" transform="translate(-105.37 -274.541)"/><path class="f" d="M0,0H26.944a0,0,0,0,1,0,0V23.5a5,5,0,0,1-5,5H5a5,5,0,0,1-5-5V0A0,0,0,0,1,0,0Z" transform="translate(93.107 47.02)"/></g><path class="b" d="M-6542.124,9382.868l2.6-26.806s9.465,0,16.305-3.04a29.728,29.728,0,0,0,11.053-9.119l-1.18-5.554s-7.021,5.554-14.3,5.554-14.82-5.554-14.82-5.554l-3.973,18.473h-1.03Z" transform="translate(6608.367 -9264.154)"/><path class="a" d="M89.221,138.354s6.4,30.177,30.674,30.841,28.89-30.21,28.89-30.21Z" transform="translate(-39.555 -90.269)"/><path class="d" d="M268.43,274.659s-.874-1.251-2.114.869c-.666,1.135-1.078,1.575-2.659,8.426-2.4,10.891,7.556,23.654,7.556,23.654L279.193,296l5.674,4.767V298.5a16.66,16.66,0,0,0-3.139-3.489,53.32,53.32,0,0,1-7.224-8.152,61.9,61.9,0,0,1-6.073-12.2Z" transform="translate(-206.864 -181.493)"/><path class="g" d="M174.47,146.831s.78,2.118-2.486,8.358a31.516,31.516,0,0,1-12.078,12.122h0c.4-.6,2.191-1.958,1.749-2.494-.271-.329-1.245.306-2.746,0s-1.39-.611-4.534-1.82a14.622,14.622,0,0,0-6.938-.487v4.264s1.942.293,6.433.979,8.09-.758,5.849-.441-3.7,3.476-5.532,4.8-2.366.586-4.086,1.533-1.664.721-2.664.721-6.292,11.667-.908,11.182,14.121-.472,22.444-13.12c4.535-7.684,4.938-8.547,6.559-14.685.633-2.4.888-3.79.888-3.79l-.474-6.988" transform="translate(-66.022 -105.921)"/><path class="h" d="M155.535,143.826s-.392,2.349,4.466,10.62,13.942,12.212,13.942,12.212-1.542.373-1.686-2.457c-.3-1.421,1.882.4,3.59,0,.461-.107,1.049-.506,3.744-1.611s7.17-.668,7.17-.668v4.086a19.85,19.85,0,0,1-6.691,1.273c-4.249.18-6.127-.622-6.127-.622s1.926,1.3,3.945,2.636c1.135.748,1.44,1.636,2.6,2.476s2.451.942,3.279,1.359a4.785,4.785,0,0,0,3.342.6c.647.173,6.589,10.813.716,11.192s-15.366-.444-24.515-13.155a59.952,59.952,0,0,1-8.419-18.376,27.968,27.968,0,0,1-.77-5.862v-3.705" transform="translate(-105.28 -105.333)"/><path class="i" d="M141.359,132.4a4.747,4.747,0,0,1,2.866-1.554,5.429,5.429,0,0,1,3.034,1.554" transform="translate(-63.324 -80.432)"/></g><g transform="translate(171.042 24.89)"><g transform="translate(28.141 2.706) rotate(-8)"><g transform="translate(0 0)"><path class="j" d="M12.932,4.77a1.114,1.114,0,0,1-.612-.182A16.435,16.435,0,0,0,1.352,2.466,1.13,1.13,0,0,1,.906.251a18.451,18.451,0,0,1,12.638,2.44,1.13,1.13,0,0,1-.612,2.079Z"/></g></g><g transform="translate(5.057 8.249)"><ellipse class="k" cx="3.012" cy="4.075" rx="3.012" ry="4.075" transform="translate(0 0)"/></g><g transform="translate(31.993 8.813)"><ellipse class="k" cx="3.012" cy="4.075" rx="3.012" ry="4.075" transform="translate(0 0)"/></g><g transform="translate(0.829 0) rotate(10)"><g transform="translate(0 0)"><path class="j" d="M1.131,4.772a1.131,1.131,0,0,1-.615-2.08A18.436,18.436,0,0,1,13.155.252a1.13,1.13,0,0,1-.446,2.215A16.39,16.39,0,0,0,1.744,4.589,1.124,1.124,0,0,1,1.131,4.772Z"/></g></g></g><path class="l" d="M188.808,115.828l3.7.375c.127-1.822.217,11.842.7,10.061h1.244s-.166-14.515,2.4-21.4,6.591-8.3,9.2-8.615,4.846.121,8.816,2.674,3.178,2.487,7.6,5.942,17.4,6.836,30.154,5.6v18.307c.491-.471,1.806,0,1.806,0s.211-10.831,1.418-11.425,2.563.3,3.378,1.632h0s5.318-17.54-1.742-31.964c-.2-.324,1.573,2.559,1.194.76-.663-3.15-5.732-6.476-6.538-7.266a26.113,26.113,0,0,0-13.027-6.662c-1.347-.293,5.14,1.409,3.15,0s-10.294-1.955-11.751-2.133c-22.214-2.707-25.452,7.176-25.452,7.176a20.852,20.852,0,0,0-13.818,9.879C186.291,97.337,188.808,115.828,188.808,115.828Z" transform="translate(-31.841 -85.044)"/><path class="m" d="M748.75,9358.406a30.331,30.331,0,0,0,4.413-4.931,32.323,32.323,0,0,0,3.12-5.976,72.984,72.984,0,0,1,.136,10.182,58.61,58.61,0,0,1-1.451,8.7s-1.839-2.667-3.428-1.216c-1.313,1.449-1.105,11.261-1.105,11.261H748.75v-18.378" transform="translate(-527.778 -9332.841)"/><path class="n" d="M640.732,9307.96s-1.736,6.233-.435,10.549,5.637,6.717,5.637,6.717-7.568-2.435-11.472,5.01S630.317,9355,630.317,9355H628.97l-.227-8.362s.032-1.458-.939-1.742a25.576,25.576,0,0,0-3.057-.518s-1.863-16.768,2.133-25.873S640.732,9307.96,640.732,9307.96Z" transform="translate(-467.819 -9313.788)"/><rect class="c" width="25.908" height="4.145" transform="translate(206.075 142.903)"/><path class="f" d="M-.645-24.333,1.013-12.865,5.3-22.4l1.036-.414L2.119-13.279l.048,90.346L-.486,78.642l.394-91.921-1.174-10.57Z" transform="translate(191.141 144.946)"/><circle class="o" cx="1.5" cy="1.5" r="1.5" transform="translate(190.139 137.981)"/><circle class="o" cx="1.5" cy="1.5" r="1.5" transform="translate(190.139 164.981)"/><circle class="o" cx="1.5" cy="1.5" r="1.5" transform="translate(190.139 192.981)"/><path class="o" d="M1.554,0A1.554,1.554,0,0,1,3.109,1.554c0,.859-.751,1.054-1.554,1.554A1.554,1.554,0,0,1,1.554,0Z" transform="translate(190.53 219.754)"/><g transform="translate(237.683 -105.253)"><circle class="l" cx="42.111" cy="42.111" r="42.111" transform="translate(19.669 0)"/><text class="p" transform="translate(46.431 57.445)"><tspan x="0" y="0">?</tspan></text><rect class="l" width="31.506" height="29.882" rx="14.941" transform="translate(0 75.773)"/></g></g></svg>